<?xml version="1.0" encoding="UTF-8" standalone="no"?>
<svg
   xmlns:dc="http://purl.org/dc/elements/1.1/"
   xmlns:cc="http://creativecommons.org/ns#"
   xmlns:rdf="http://www.w3.org/1999/02/22-rdf-syntax-ns#"
   xmlns:svg="http://www.w3.org/2000/svg"
   xmlns="http://www.w3.org/2000/svg"
   xmlns:sodipodi="http://sodipodi.sourceforge.net/DTD/sodipodi-0.dtd"
   xmlns:inkscape="http://www.inkscape.org/namespaces/inkscape"
   width="1060"
   height="1042"
   viewBox="0 0 1060 1042"
   id="svg2"
   version="1.1"
   inkscape:version="0.91 r13725"
   sodipodi:docname="drupal-logo-2.svg"
   style="fill:none">
  <metadata
     id="metadata20">
    <rdf:RDF>
      <cc:Work
         rdf:about="">
        <dc:format>image/svg+xml</dc:format>
        <dc:type
           rdf:resource="http://purl.org/dc/dcmitype/StillImage" />
        <dc:title></dc:title>
      </cc:Work>
    </rdf:RDF>
  </metadata>
  <sodipodi:namedview
     pagecolor="#ffffff"
     bordercolor="#666666"
     borderopacity="1"
     objecttolerance="10"
     gridtolerance="10"
     guidetolerance="10"
     inkscape:pageopacity="0"
     inkscape:pageshadow="2"
     inkscape:window-width="1855"
     inkscape:window-height="1056"
     id="namedview18"
     showgrid="false"
     inkscape:zoom="0.28128725"
     inkscape:cx="530"
     inkscape:cy="703.90678"
     inkscape:window-x="65"
     inkscape:window-y="24"
     inkscape:window-maximized="1"
     inkscape:current-layer="svg2" />
  <g
     clip-path="url(#clip0)"
     id="g4"
     transform="translate(0,203)">
    <path
       d="m 635.24,-100.388 c 26.939,4.81 54.271,9.6905 83.436,18.9962 0.538,0.1757 1.116,0.3638 1.734,0.5647 41.386,13.4651 258.638,84.14912 323.63,341.0631 65.97,260.746 -96.551,485.053 -334.131,545.157 C 472.33,865.496 211.103,732.693 146.886,478.854 82.6686,225.015 251.176,56.7491 282.939,28.8425 c 9.206,-8.5286 17.899,-16.1526 26.368,-23.58167 25.908,-22.72413 49.736,-43.62433 79.861,-83.01303 18.61,-25.6378 32.467,-58.4208 22.153,-128.0658 46.226,33.457 101.078,71.905 136.868,84.838 29.747,10.359 58.173,15.435 87.051,20.592 z M 379.917,583.104 c -18.349,-76.724 35.4,-166.75 125.825,-190.978 67.12,-17.598 132.161,7.37 186.212,28.119 38.62,14.825 71.629,27.496 95.775,20.946 24.704,-6.783 54.807,-40.713 84.524,-74.208 29.256,-32.976 58.139,-65.531 81.128,-71.347 49.279,-12.466 76.009,35.212 83.719,65.712 7.72,30.501 11.8,88.083 -2.85,128.417 -14.66,40.335 -26.81,57.048 -54.609,61.964 -16.824,2.809 -47.15,-15.571 -79.403,-35.118 -37.204,-22.548 -76.971,-46.65 -101.53,-41.57 -25.566,5.534 -58.061,38.249 -94.778,75.214 -46.543,46.858 -99.87,100.546 -154.467,114.358 -59.132,14.96 -79.099,10.546 -102.095,2.783 -34.793,-13.186 -57.489,-40.955 -67.493,-84.458 l 0.042,0.166 z m 459.775,-35.713 c -13.737,-4.932 -30.765,-1.682 -46.544,2.31 l 0.055,-0.014 c -1.835,0.464 -3.58,0.891 -5.256,1.301 -12.734,3.117 -21.43,5.246 -34.663,15.088 -14.689,10.926 -28.025,30.561 -36.631,43.233 l -0.495,0.728 c -8.585,12.637 -8.413,21.236 -0.559,27.362 7.816,6.098 12.489,-0.23 25.642,-18.039 l 0.187,-0.253 c 1.157,-1.567 2.273,-3.108 3.369,-4.622 l 0.005,-0.007 10e-4,-10e-4 c 11.494,-15.87 20.789,-28.704 52.274,-36.669 33.739,-8.535 43.128,1.857 53.086,12.881 l 0.371,0.41 0.299,0.33 0.101,0.112 c 10.128,11.188 11.624,12.84 17.477,7.199 1.769,-1.112 3.272,-2.598 4.402,-4.353 1.131,-1.755 1.863,-3.735 2.143,-5.802 0.281,-2.067 0.104,-4.17 -0.519,-6.16 -0.623,-1.991 -1.676,-3.82 -3.084,-5.358 l -0.079,-0.109 c -6.435,-8.862 -17.902,-24.655 -31.582,-29.567 z m -62.211,156.013 c -63.118,15.968 -95.927,10.629 -119.621,-0.132 l 0.138,-0.153 c -0.492,-0.171 -0.892,-0.322 -1.235,-0.452 l -0.003,-0.002 c -2.043,-0.774 -2.043,-0.774 -7.114,0.509 -5.501,1.817 -10.145,5.586 -13.049,10.592 -1.084,1.682 -1.81,3.568 -2.133,5.541 -0.323,1.973 -0.237,3.991 0.253,5.928 0.49,1.938 1.374,3.754 2.597,5.336 1.222,1.582 2.758,2.895 4.511,3.86 53.319,28.429 124.541,7.236 176.56,-11.156 36.432,-13.906 68.531,-37.2 93.025,-67.509 1.769,-2.603 2.697,-5.684 2.66,-8.828 -0.037,-3.144 -1.038,-6.2 -2.867,-8.757 -2.004,-3.726 -7.472,-8.575 -14.597,0.518 -16.145,19.781 -56.006,48.737 -119.125,64.705 z"
       id="path6"
       inkscape:connector-curvature="0"
       style="clip-rule:evenodd;fill:url(#paint0_linear);fill-opacity:0.19200003;fill-rule:evenodd" />
  </g>
  <defs
     id="defs8">
    <linearGradient
       id="paint0_linear"
       x1="2078.24"
       y1="-1263.97"
       x2="44.182201"
       y2="-375.76401"
       gradientUnits="userSpaceOnUse">
      <stop
         id="stop11" />
      <stop
         offset="1"
         stop-color="white"
         stop-opacity="0"
         id="stop13" />
    </linearGradient>
    <clipPath
       id="clip0">
      <rect
         width="923.60303"
         height="1053.5601"
         transform="matrix(0.96945819,-0.24525663,0.24525663,0.96945819,0,-101.76)"
         id="rect16"
         x="0"
         y="0"
         style="fill:#ffffff" />
    </clipPath>
  </defs>
</svg>
